<svg class="link-social__svg" xmlns="http://www.w3.org/2000/svg" viewBox="0 0 552.8 205.3" fill="#000000">
                            <g>
                                <path class="rsschool__fill" fill="#000000" d="M470.8,29.9c-17.2-22.8-53.7-24.4-81.5-3.5c-27.8,20.9-36.4,56.4-19.1,79.3c17.2,22.8,53.7,24.4,81.5,3.5
		C479.5,88.3,488,52.8,470.8,29.9z M419.1,88.4c-1.3,3-3.4,5.5-6.2,7.3c-3.3,2.3-6.1,3.6-8.5,4c-2.3,0.4-4.7,0-6.9-1
		c-2.4-1.2-4.5-2.9-6.1-5.1l8.6-8c0.7,1.1,1.6,2.1,2.6,2.9c0.7,0.5,1.5,0.8,2.4,0.8c0.7,0,1.4-0.3,1.9-0.7c1-0.6,1.7-1.8,1.6-3
		c-0.3-1.7-1-3.4-2.1-4.7l-14-19.7l10-7l12.3,17.5c2.1,2.8,3.7,5.8,4.9,9.1C420.3,83.3,420.1,86.1,419.1,88.4z M452.2,66.3
		c-1.8,2.7-4.1,5-6.8,6.8c-5.5,3.8-10,5.4-13.6,4.8c-3.9-0.6-7.1-2.6-9.4-5.5l9.1-7.2c1,1.2,2.3,2.1,3.7,2.6c2,0.6,4.1,0.2,5.8-1.1
		c1.2-0.8,2.2-1.9,2.6-3.3c0.6-1.8-0.4-3.8-2.2-4.4c-0.3-0.1-0.6-0.2-0.9-0.2c-1.2-0.1-3.3,0.4-6.4,1.7c-5.1,2.1-9.1,2.9-12.1,2.6
		c-2.9-0.3-5.6-1.8-7.2-4.3c-1.2-1.7-1.8-3.7-1.9-5.7c0-2.3,0.6-4.6,1.9-6.5c1.9-2.7,4.2-5,7-6.8c4.2-2.9,7.9-4.3,11.1-4.3
		s6.2,1.5,9,4.6l-9,7.1c-1.8-2.3-5.2-2.8-7.5-1l-0.3,0.3c-1,0.6-1.7,1.5-2.1,2.6c-0.3,0.8-0.1,1.7,0.4,2.4c0.4,0.5,1,0.9,1.7,0.9
		c0.8,0.1,2.2-0.3,4.2-1.2c5-2.1,8.8-3.3,11.4-3.7c2.2-0.4,4.5-0.2,6.6,0.7c1.9,0.8,3.5,2.2,4.6,3.9c1.4,2,2.2,4.4,2.3,6.9
		C454.3,61.6,453.6,64.1,452.2,66.3z"></path>
                                <path d="M34,61.2h2.4c2.4,0,4.8,0.7,6.8,2.1c1.5,1.1,3.1,3.4,5,6.9L63,97.7h31.4L81,71.8c-1.1-2-2.4-3.9-3.9-5.6
		c-1.3-1.7-2.7-3.3-4.4-4.7c-2.2-1.4-4.7-2.6-7.2-3.3c3.4-0.6,6.7-1.8,9.7-3.5c7.7-4.4,12.2-12.8,11.9-21.6
		c0.1-5.2-1.3-10.2-4.2-14.5c-2.6-3.9-6.5-6.8-10.9-8.2c-4.5-1.5-11.1-2.2-19.6-2.2H6.3v89.3H34V61.2z M34,26.3h12.2
		c5,0,8.5,0.8,10.3,2.3c3.3,3.1,3.7,8.2,1,11.8c-1.1,1.5-2.7,2.5-4.5,2.8c-2.4,0.6-4.8,1-7.3,1.2H34V26.3z"></path>
                                <path d="M133,167.1c-1.2,5.6-3.2,9.9-5.9,13c-2.7,2.9-6.7,4.4-12,4.4c-5.5,0-9.7-1.8-12.7-5.5c-3-3.7-4.5-10.5-4.5-20.4
		c0-8,1.3-13.9,3.8-17.6c3.3-5.1,8.1-7.6,14.4-7.6c2.6,0,5.2,0.5,7.5,1.7c2.3,1.2,4.2,2.8,5.7,4.9c1.2,1.8,2.1,3.9,2.7,6l24.4-5.4
		c-3.2-9.4-8-16.4-14.4-21c-6.5-4.5-15.3-6.8-26.6-6.8c-14.4,0-25.5,4-33.4,11.9c-2.1,2.1-4,4.5-5.5,7.2c-1.8-5.5-4.8-9.7-9-12.7
		c-6-4.3-14.7-6.4-26.1-6.4c-9.3,0-16.7,1.2-22,3.5c-4.9,1.9-9,5.3-12,9.6c-2.6,3.8-4,8.4-4,13c-0.2,6.7,2.7,13,7.8,17.3
		c5.1,4.6,13.8,8.2,25.9,10.9c7.5,1.6,12.2,3.4,14.2,5.2c1.9,1.5,3,3.8,3,6.2c0,2.5-1.2,4.8-3.2,6.4c-2.1,1.9-5.2,2.8-9.1,2.8
		c-5.3,0-9.4-1.9-12.2-5.5c-1.8-2.3-2.9-5.5-3.5-9.8L0,174.1l0,0c0.8,9,4.1,16.4,10,22.4c5.9,5.9,16.4,8.8,31.6,8.8
		c8.6,0,15.8-1.3,21.5-3.8c5.4-2.3,10-6.1,13.3-11c0.6-0.9,1.1-1.8,1.6-2.8c4.3,6.2,9.2,10.7,14.9,13.3c6.1,2.8,14.1,4.2,23.8,4.2
		c8,0,14.6-1.2,19.8-3.5c5.1-2.3,9.6-5.8,13-10.3c3.7-5.1,6.4-10.9,7.7-17L133,167.1L133,167.1z M70.3,154.1
		c-1.3-0.9-2.6-1.7-4.1-2.5c-5.3-2.7-13.9-5.3-26-7.9c-4.9-1-8-2.1-9.3-3.3c-1.2-0.9-2-2.3-2-3.8c-0.1-2,0.8-3.8,2.4-5
		c1.6-1.4,4-2.1,7.2-2.1c3.9-0.1,7,0.8,9.2,2.7c2.3,1.9,3.7,4.8,4.4,8.8l20.8-1.2C71.5,144.1,70.7,148.9,70.3,154.1z"></path>
                                <path d="M317.5,112.8c-14.5,0-25.9,4.1-34,12.2c-3.6,3.6-6.4,7.8-8.4,12.7v-23.4h-27.8v31.3h-30.2v-31.3h-27.6v89.4h27.6v-36.2
		h30.2v36.2h27.8v-23.3c0.7,1.7,1.5,3.3,2.4,4.9c3.7,6.5,9.3,11.8,16.1,15.2c6.6,3.2,14.9,4.8,25,4.8c9.9,0,18.2-1.9,24.9-5.6
		c6.5-3.6,11.8-9,15.2-15.6c3.5-6.7,5.3-15.2,5.3-25.7c0-14.4-4-25.6-12.1-33.6C343.8,116.8,332.4,112.8,317.5,112.8z M331.4,178.8
		c-3.3,3.9-7.9,5.8-13.8,5.8c-5.8,0-10.4-2-13.7-5.9c-3.3-4-5-10.5-5-19.5l0,0c0-9.1,1.7-15.6,5.1-19.5s8.3-6.1,13.4-5.9
		c5.8,0,10.4,1.9,13.8,5.8c3.4,3.8,5.1,10,5.1,18.4C336.3,168,334.7,174.9,331.4,178.8z"></path>
                                <path d="M509.7,181.8v-67.4h-27.6H482v25c-2-5.7-5.1-10.5-9.1-14.5c-6-6-14-9.8-23.9-11.3c1.3-0.9,2.6-1.8,3.9-2.7
		c13.8-10.4,23.5-24.6,27.2-40.1c3.8-15.6,1-30.5-7.7-42C454.5,5,416.7,3.4,388.1,25c-11.4,8.6-19.7,19.6-24.3,31.3
		c-0.2-0.4-0.4-0.7-0.6-1.1c-2.3-3.9-6.1-7.2-11.4-9.9s-13.9-5.3-26-7.9c-4.9-1-8-2.1-9.3-3.3c-1.2-0.9-2-2.3-2-3.8
		c-0.1-2,0.9-3.8,2.4-5c1.6-1.3,4-2,7.2-2c3.9,0,6.9,0.9,9.2,2.8c2.3,1.9,3.7,4.8,4.4,8.8l26-1.5C362.6,24,359,17.2,353,13
		c-6-4.3-14.7-6.4-26.1-6.4c-9.3,0-16.7,1.2-22,3.5c-4.9,1.9-9,5.3-12,9.6c-2.6,3.8-4,8.4-4,13c-0.2,6.7,2.7,13,7.8,17.3
		c5.1,4.6,13.8,8.2,25.9,10.9c7.4,1.6,12.1,3.4,14.1,5.2c1.9,1.5,3,3.8,3,6.2c0,2.5-1.2,4.9-3.2,6.4c-2.1,1.9-5.2,2.8-9.1,2.8
		c-5.3,0-9.3-1.8-12.2-5.4c-1.8-2.3-2.9-5.5-3.5-9.8L285.4,68c0.7,9,4.2,16.4,10.1,22.3s16.4,8.8,31.6,8.8c8.6,0,15.8-1.3,21.5-3.8
		c4.4-1.9,8.3-4.8,11.4-8.5c1.2,7.3,4,14.2,8.6,20.2c8.1,10.8,20.6,17.4,35.2,18.7c-7.6,8.1-11.5,19.2-11.5,33.4
		c0,10.5,2.1,19.2,6.2,26.2c3.7,6.5,9.3,11.8,16.1,15.2c6.6,3.2,14.9,4.8,25,4.8c9.9,0,18.2-1.9,24.9-5.6c6.5-3.6,11.8-9,15.2-15.6
		c0.9-1.7,1.6-3.5,2.3-5.4v25.1h70.8v-22H509.7z M408,122c-0.3,0-0.6,0-0.9,0c-14.8-0.6-27.3-6.8-35.3-17.4
		c-5.1-6.7-7.8-14.6-8.3-22.9c2.2-4.1,3.3-8.7,3.3-13.3c0-2.2-0.2-4.4-0.7-6.5c4-12.5,12.4-24.6,24.6-33.8
		c12.7-9.6,27.3-14.3,41-14.3c15.1,0,29,5.8,37.7,17.4c8,10.6,10.4,24.3,7,38.7c-3.5,14.5-12.6,27.9-25.7,37.8
		c-2.6,1.9-5.3,3.7-8,5.3c-1.3-0.1-2.6-0.1-4-0.1C426,112.8,415.7,115.9,408,122z M452.4,178.8c-3.3,3.9-7.9,5.8-13.8,5.8
		c-5.8,0-10.4-2-13.7-5.9c-3.3-4-5-10.5-5-19.5l0,0c0-9.1,1.7-15.6,5.1-19.5c3.3-3.9,8.3-6.1,13.4-5.9c5.8,0,10.4,1.9,13.8,5.8
		c3.4,3.8,5.1,10,5.1,18.4C457.3,168,455.7,174.9,452.4,178.8z"></path>
                            </g>
                        </svg>